<svg xmlns="http://www.w3.org/2000/svg" xmlns:v="https://svgstorm.com"
viewBox = "0 0 512 512"
width="50"
height="50">
<g fill="None" fill-opacity="0.0" stroke="#000000" stroke-opacity="0.00" stroke-width="0.3"><path d="
M 0.00 512.00 
L 512.00 512.00
L 512.00 0.00
L 0.00 0.00
L 0.00 512.00
M 251.00 26.00 
C 258.05 29.44 247.91 39.87 245.23 45.23 C 242.55 50.59 242.59 63.12 246.31 69.69 C 250.02 76.26 250.55 88.25 248.02 96.02 C 245.49 103.80 240.78 106.75 237.23 115.23 C 233.68 123.71 238.71 129.49 242.25 137.75 C 245.80 146.00 231.26 144.05 229.70 135.30 C 228.13 126.56 225.14 118.06 228.93 109.93 C 232.71 101.79 236.45 98.22 239.32 90.32 C 242.19 82.43 237.52 73.12 234.68 66.32 C 231.83 59.53 232.87 46.62 236.31 41.31 C 239.74 35.99 243.21 22.20 251.00 26.00
M 212.00 35.00 
C 221.07 37.66 208.48 47.09 209.02 53.02 C 209.57 58.95 210.32 70.07 212.00 77.00 C 213.68 83.93 213.37 92.47 209.23 99.23 C 205.09 105.99 203.83 110.81 201.01 119.01 C 198.19 127.20 202.82 130.87 205.92 139.08 C 209.01 147.29 195.62 146.52 193.70 138.30 C 191.78 130.09 188.65 123.93 190.99 115.99 C 193.33 108.05 194.91 102.67 199.30 96.30 C 203.70 89.94 204.07 80.69 202.00 74.00 C 199.94 67.30 198.70 56.74 199.93 50.93 C 201.16 45.11 204.23 32.72 212.00 35.00
M 277.00 38.00 
C 285.71 40.46 273.46 52.02 274.01 58.01 C 274.56 64.00 276.45 75.59 278.99 82.01 C 281.53 88.43 279.83 101.00 276.68 106.68 C 273.53 112.36 268.91 124.55 272.93 130.07 C 276.94 135.59 279.96 149.67 271.00 147.00 C 262.04 144.33 264.00 133.72 262.00 127.00 C 260.00 120.27 263.25 108.87 266.77 102.77 C 270.29 96.67 270.83 85.57 267.68 79.32 C 264.53 73.07 263.23 60.01 264.00 54.00 C 264.77 47.99 270.54 36.18 277.00 38.00
M 359.00 266.00 
C 367.18 267.53 375.37 271.03 382.25 275.75 C 389.12 280.48 394.87 285.12 399.75 292.25 C 404.64 299.37 408.31 307.22 409.98 316.02 C 411.65 324.83 411.70 338.52 409.02 347.02 C 406.35 355.53 403.53 362.94 397.75 369.75 C 391.96 376.55 386.84 380.51 379.75 385.75 C 372.66 391.00 362.17 391.33 353.99 393.99 C 345.82 396.65 329.37 390.55 325.03 397.03 C 320.68 403.50 321.22 414.83 317.02 422.02 C 312.83 429.22 310.96 437.31 304.75 443.75 C 298.55 450.19 304.17 462.05 299.02 470.02 C 293.88 478.00 287.59 482.06 278.00 483.00 C 268.40 483.93 258.00 486.81 247.93 486.93 C 237.85 487.05 224.02 487.61 214.00 487.00 C 203.98 486.39 192.55 484.97 183.00 484.00 C 173.45 483.03 165.45 481.15 158.75 474.25 C 152.06 467.35 152.06 455.78 154.00 447.00
C 129.51 424.87 123.50 394.16 117.67 362.33 C 111.84 330.49 109.13 287.74 103.02 255.98 C 96.91 224.21 96.13 177.13 131.07 166.07 C 166.02 155.02 201.48 149.58 238.00 152.00 C 274.52 154.42 306.64 155.59 338.23 172.77 C 369.81 189.95 364.08 236.54 359.00 266.00 Z"/>
</g>
<g fill="None" fill-opacity="0.0" stroke="#420849" stroke-opacity="0.90" stroke-width="0.3"><path d="
M 251.00 26.00 
C 243.21 22.20 239.74 35.99 236.31 41.31 C 232.87 46.62 231.83 59.53 234.68 66.32 C 237.52 73.12 242.19 82.43 239.32 90.32 C 236.45 98.22 232.71 101.79 228.93 109.93 C 225.14 118.06 228.13 126.56 229.70 135.30 C 231.26 144.05 245.80 146.00 242.25 137.75 C 238.71 129.49 233.68 123.71 237.23 115.23 C 240.78 106.75 245.49 103.80 248.02 96.02 C 250.55 88.25 250.02 76.26 246.31 69.69 C 242.59 63.12 242.55 50.59 245.23 45.23 C 247.91 39.87 258.05 29.44 251.00 26.00 Z"/>
</g>
<g fill="None" fill-opacity="0.0" stroke="#420848" stroke-opacity="0.91" stroke-width="0.3"><path d="
M 212.00 35.00 
C 204.23 32.72 201.16 45.11 199.93 50.93 C 198.70 56.74 199.94 67.30 202.00 74.00 C 204.07 80.69 203.70 89.94 199.30 96.30 C 194.91 102.67 193.33 108.05 190.99 115.99 C 188.65 123.93 191.78 130.09 193.70 138.30 C 195.62 146.52 209.01 147.29 205.92 139.08 C 202.82 130.87 198.19 127.20 201.01 119.01 C 203.83 110.81 205.09 105.99 209.23 99.23 C 213.37 92.47 213.68 83.93 212.00 77.00 C 210.32 70.07 209.57 58.95 209.02 53.02 C 208.48 47.09 221.07 37.66 212.00 35.00 Z"/>
</g>
<g fill="None" fill-opacity="0.0" stroke="#420848" stroke-opacity="0.91" stroke-width="0.3"><path d="
M 277.00 38.00 
C 270.54 36.18 264.77 47.99 264.00 54.00 C 263.23 60.01 264.53 73.07 267.68 79.32 C 270.83 85.57 270.29 96.67 266.77 102.77 C 263.25 108.87 260.00 120.27 262.00 127.00 C 264.00 133.72 262.04 144.33 271.00 147.00 C 279.96 149.67 276.94 135.59 272.93 130.07 C 268.91 124.55 273.53 112.36 276.68 106.68 C 279.83 101.00 281.53 88.43 278.99 82.01 C 276.45 75.59 274.56 64.00 274.01 58.01 C 273.46 52.02 285.71 40.46 277.00 38.00 Z"/>
</g>
<g fill="None" fill-opacity="0.0" stroke="#440C4A" stroke-opacity="0.96" stroke-width="0.3"><path d="
M 359.00 266.00 
C 364.08 236.54 369.81 189.95 338.23 172.77 C 306.64 155.59 274.52 154.42 238.00 152.00 C 201.48 149.58 166.02 155.02 131.07 166.07 C 96.13 177.13 96.91 224.21 103.02 255.98 C 109.13 287.74 111.84 330.49 117.67 362.33 C 123.50 394.16 129.51 424.87 154.00 447.00
C 152.06 455.78 152.06 467.35 158.75 474.25 C 165.45 481.15 173.45 483.03 183.00 484.00 C 192.55 484.97 203.98 486.39 214.00 487.00 C 224.02 487.61 237.85 487.05 247.93 486.93 C 258.00 486.81 268.40 483.93 278.00 483.00 C 287.59 482.06 293.88 478.00 299.02 470.02 C 304.17 462.05 298.55 450.19 304.75 443.75 C 310.96 437.31 312.83 429.22 317.02 422.02 C 321.22 414.83 320.68 403.50 325.03 397.03 C 329.37 390.55 345.82 396.65 353.99 393.99 C 362.17 391.33 372.66 391.00 379.75 385.75 C 386.84 380.51 391.96 376.55 397.75 369.75 C 403.53 362.94 406.35 355.53 409.02 347.02 C 411.70 338.52 411.65 324.83 409.98 316.02 C 408.31 307.22 404.64 299.37 399.75 292.25 C 394.87 285.12 389.12 280.48 382.25 275.75 C 375.37 271.03 367.18 267.53 359.00 266.00
M 240.00 163.00 
C 270.66 163.00 299.89 166.26 328.03 177.98 C 356.16 189.69 356.68 225.80 352.01 253.01 C 347.34 280.22 339.79 309.36 332.22 337.22 C 324.66 365.09 317.18 387.45 309.02 417.02 C 300.87 446.60 271.72 455.00 243.00 455.00
C 240.18 455.27 236.76 455.27 234.00 455.00
C 210.59 455.00 181.02 455.02 161.77 441.23 C 142.52 427.44 139.21 406.69 132.22 384.78 C 125.24 362.87 124.81 332.89 121.00 309.00 C 117.19 285.11 113.67 257.54 111.00 233.00 C 108.33 208.46 111.64 180.75 138.07 174.07 C 164.51 167.40 186.24 163.00 214.00 163.00
C 222.18 162.21 231.89 162.22 240.00 163.00
M 328.00 385.00 
C 327.85 364.99 351.74 371.84 364.75 362.75 C 377.75 353.65 385.16 337.72 382.01 321.99 C 378.85 306.27 368.37 294.67 353.00 291.00
C 352.97 285.41 355.15 280.40 356.00 275.00
C 386.59 281.41 407.30 310.93 400.02 342.02 C 392.75 373.12 359.96 390.65 328.00 385.00
M 335.00 362.00 
C 339.81 341.21 346.24 320.85 351.00 300.00
C 366.25 304.65 376.46 322.11 371.67 337.67 C 366.88 353.24 350.40 361.44 335.00 362.00
M 231.00 464.00 
C 236.33 464.00 241.67 464.00 247.00 464.00
C 262.74 464.00 278.19 461.95 292.00 455.00
C 294.35 475.70 271.99 474.86 256.00 476.00 C 240.01 477.14 215.11 477.64 199.00 476.00 C 182.89 474.36 160.69 474.37 162.00 453.00
C 183.60 461.36 207.26 463.31 231.00 464.00 Z"/>
</g>
<g fill="None" fill-opacity="0.0" stroke="#9F7E70" stroke-opacity="1.00" stroke-width="0.3"><path d="
M 214.00 163.00 
C 222.67 163.00 231.33 163.00 240.00 163.00
C 231.89 162.22 222.18 162.21 214.00 163.00 Z"/>
</g>
<g fill="None" fill-opacity="0.0" stroke="#FEF898" stroke-opacity="1.00" stroke-width="0.3"><path d="
M 234.00 455.00 
C 237.00 455.00 240.00 455.00 243.00 455.00
C 271.72 455.00 300.87 446.60 309.02 417.02 C 317.18 387.45 324.66 365.09 332.22 337.22 C 339.79 309.36 347.34 280.22 352.01 253.01 C 356.68 225.80 356.16 189.69 328.03 177.98 C 299.89 166.26 270.66 163.00 240.00 163.00
C 231.33 163.00 222.67 163.00 214.00 163.00
C 186.24 163.00 164.51 167.40 138.07 174.07 C 111.64 180.75 108.33 208.46 111.00 233.00 C 113.67 257.54 117.19 285.11 121.00 309.00 C 124.81 332.89 125.24 362.87 132.22 384.78 C 139.21 406.69 142.52 427.44 161.77 441.23 C 181.02 455.02 210.59 455.00 234.00 455.00
M 248.00 187.00 
C 260.53 187.00 277.28 188.63 289.01 190.99 C 300.74 193.36 315.99 194.08 320.00 206.00
C 327.25 195.86 340.43 203.71 330.75 210.75 C 321.07 217.79 315.41 218.54 304.98 221.98 C 294.54 225.41 284.45 225.01 273.33 226.33 C 262.21 227.65 249.56 227.92 238.00 228.00
C 232.02 228.58 224.91 228.57 219.00 228.00
C 210.39 228.00 202.50 227.30 194.00 227.00
C 194.00 249.00 194.00 271.00 194.00 293.00
C 208.90 289.29 216.22 298.51 224.25 308.75 C 232.29 318.98 240.31 325.50 239.00 340.00 C 237.69 354.50 238.06 367.95 235.00 382.00 C 231.95 396.05 210.91 391.45 198.00 391.00 C 185.09 390.55 167.07 392.94 155.31 387.69 C 143.54 382.45 150.09 360.10 148.00 349.00 C 145.91 337.90 145.72 319.57 154.25 311.25 C 162.78 302.93 168.43 291.40 182.00 293.00
C 186.62 290.29 184.00 272.37 184.00 267.00
C 184.00 258.33 184.00 249.67 184.00 241.00
C 184.00 236.00 184.00 231.00 184.00 226.00
C 180.52 223.00 170.51 225.19 165.99 223.01 C 161.47 220.83 153.89 221.25 149.32 218.68 C 144.75 216.11 137.89 215.67 133.92 212.08 C 129.95 208.49 123.58 209.32 122.08 202.92 C 120.59 196.51 132.36 198.16 135.00 202.00
C 146.64 190.81 162.32 190.05 179.01 188.01 C 195.70 185.97 217.55 186.61 235.00 186.00
C 239.41 186.00 244.34 186.65 248.00 187.00 Z"/>
</g>
<g fill="None" fill-opacity="0.0" stroke="#440A49" stroke-opacity="1.00" stroke-width="0.3"><path d="
M 184.00 226.00 
C 186.52 228.18 185.00 237.59 185.00 241.00
C 185.00 249.67 185.00 258.33 185.00 267.00
C 185.00 273.19 187.82 290.63 182.00 293.00
C 168.43 291.40 162.78 302.93 154.25 311.25 C 145.72 319.57 145.91 337.90 148.00 349.00 C 150.09 360.10 143.54 382.45 155.31 387.69 C 167.07 392.94 185.09 390.55 198.00 391.00 C 210.91 391.45 231.95 396.05 235.00 382.00 C 238.06 367.95 237.69 354.50 239.00 340.00 C 240.31 325.50 232.29 318.98 224.25 308.75 C 216.22 298.51 208.90 289.29 194.00 293.00
C 194.00 271.00 194.00 249.00 194.00 227.00
C 202.50 227.30 210.39 228.00 219.00 228.00
C 225.33 228.00 231.67 228.00 238.00 228.00
C 249.56 227.92 262.21 227.65 273.33 226.33 C 284.45 225.01 294.54 225.41 304.98 221.98 C 315.41 218.54 321.07 217.79 330.75 210.75 C 340.43 203.71 327.25 195.86 320.00 206.00
C 315.99 194.08 300.74 193.36 289.01 190.99 C 277.28 188.63 260.53 187.00 248.00 187.00
C 243.59 187.00 238.66 186.35 235.00 186.00
C 217.55 186.61 195.70 185.97 179.01 188.01 C 162.32 190.05 146.64 190.81 135.00 202.00
C 132.36 198.16 120.59 196.51 122.08 202.92 C 123.58 209.32 129.95 208.49 133.92 212.08 C 137.89 215.67 144.75 216.11 149.32 218.68 C 153.89 221.25 161.47 220.83 165.99 223.01 C 170.51 225.19 180.52 223.00 184.00 226.00
M 180.00 329.00 
C 185.24 328.69 191.79 328.50 197.00 329.00
C 201.45 329.00 209.55 329.10 207.67 322.33 C 205.79 315.56 198.86 319.83 194.00 319.00
C 194.00 313.33 194.00 307.67 194.00 302.00
C 202.09 300.73 209.43 301.70 213.75 308.25 C 218.08 314.80 220.38 317.39 225.75 323.25 C 231.13 329.10 231.36 335.58 231.00 344.00 C 230.64 352.42 228.22 359.31 228.07 368.07 C 227.93 376.84 226.20 383.90 216.00 382.00 C 205.80 380.10 198.54 383.23 189.00 382.00 C 179.46 380.77 173.68 381.44 164.00 381.00 C 154.32 380.56 159.07 366.64 158.00 360.00
C 157.64 356.27 157.00 351.41 157.00 347.00
C 157.00 327.30 160.20 303.90 184.00 301.00
C 184.00 307.33 184.00 313.67 184.00 320.00
C 172.43 314.56 165.44 330.87 180.00 329.00 Z"/>
</g>
<g fill="None" fill-opacity="0.0" stroke="#B09477" stroke-opacity="1.00" stroke-width="0.3"><path d="
M 248.00 187.00 
C 244.34 186.65 239.41 186.00 235.00 186.00
C 238.66 186.35 243.59 187.00 248.00 187.00 Z"/>
</g>
<g fill="None" fill-opacity="0.0" stroke="#CFBC84" stroke-opacity="1.00" stroke-width="0.3"><path d="
M 184.00 241.00 
C 184.00 240.96 185.00 241.00 185.00 241.00
C 185.00 237.59 186.52 228.18 184.00 226.00
C 184.00 231.00 184.00 236.00 184.00 241.00 Z"/>
</g>
<g fill="None" fill-opacity="0.0" stroke="#A28271" stroke-opacity="1.00" stroke-width="0.3"><path d="
M 238.00 228.00 
C 231.67 228.00 225.33 228.00 219.00 228.00
C 224.91 228.57 232.02 228.58 238.00 228.00 Z"/>
</g>
<g fill="None" fill-opacity="0.0" stroke="#A18171" stroke-opacity="1.00" stroke-width="0.3"><path d="
M 184.00 267.00 
C 184.00 266.96 185.00 267.00 185.00 267.00
C 185.00 258.33 185.00 249.67 185.00 241.00
C 185.00 241.00 184.00 240.96 184.00 241.00
C 184.00 249.67 184.00 258.33 184.00 267.00 Z"/>
</g>
<g fill="None" fill-opacity="0.0" stroke="#75495E" stroke-opacity="1.00" stroke-width="0.3"><path d="
M 182.00 293.00 
C 187.82 290.63 185.00 273.19 185.00 267.00
C 185.00 267.00 184.00 266.96 184.00 267.00
C 184.00 272.37 186.62 290.29 182.00 293.00 Z"/>
</g>
<g fill="None" fill-opacity="0.0" stroke="#FBF597" stroke-opacity="1.00" stroke-width="0.3"><path d="
M 328.00 385.00 
C 359.96 390.65 392.75 373.12 400.02 342.02 C 407.30 310.93 386.59 281.41 356.00 275.00
C 355.15 280.40 352.97 285.41 353.00 291.00
C 368.37 294.67 378.85 306.27 382.01 321.99 C 385.16 337.72 377.75 353.65 364.75 362.75 C 351.74 371.84 327.85 364.99 328.00 385.00 Z"/>
</g>
<g fill="None" fill-opacity="0.0" stroke="#000000" stroke-opacity="0.00" stroke-width="0.3"><path d="
M 335.00 362.00 
C 350.40 361.44 366.88 353.24 371.67 337.67 C 376.46 322.11 366.25 304.65 351.00 300.00
C 346.24 320.85 339.81 341.21 335.00 362.00 Z"/>
</g>
<g fill="None" fill-opacity="0.0" stroke="#EF5922" stroke-opacity="1.00" stroke-width="0.3"><path d="
M 157.00 347.00 
C 157.36 350.73 158.00 355.59 158.00 360.00
C 159.07 366.64 154.32 380.56 164.00 381.00 C 173.68 381.44 179.46 380.77 189.00 382.00 C 198.54 383.23 205.80 380.10 216.00 382.00 C 226.20 383.90 227.93 376.84 228.07 368.07 C 228.22 359.31 230.64 352.42 231.00 344.00 C 231.36 335.58 231.13 329.10 225.75 323.25 C 220.38 317.39 218.08 314.80 213.75 308.25 C 209.43 301.70 202.09 300.73 194.00 302.00
C 194.00 307.67 194.00 313.33 194.00 319.00
C 198.86 319.83 205.79 315.56 207.67 322.33 C 209.55 329.10 201.45 329.00 197.00 329.00
C 191.35 329.00 185.65 329.22 180.00 329.00
C 165.44 330.87 172.43 314.56 184.00 320.00
C 184.00 313.67 184.00 307.33 184.00 301.00
C 160.20 303.90 157.00 327.30 157.00 347.00 Z"/>
</g>
<g fill="None" fill-opacity="0.0" stroke="#993136" stroke-opacity="1.00" stroke-width="0.3"><path d="
M 180.00 329.00 
C 185.65 329.22 191.35 329.00 197.00 329.00
C 191.79 328.50 185.24 328.69 180.00 329.00 Z"/>
</g>
<g fill="None" fill-opacity="0.0" stroke="#89293A" stroke-opacity="1.00" stroke-width="0.3"><path d="
M 158.00 360.00 
C 158.00 355.59 157.36 350.73 157.00 347.00
C 157.00 351.41 157.64 356.27 158.00 360.00 Z"/>
</g>
<g fill="None" fill-opacity="0.0" stroke="#FAF497" stroke-opacity="1.00" stroke-width="0.3"><path d="
M 247.00 464.00 
C 241.97 464.49 235.97 464.48 231.00 464.00
C 207.26 463.31 183.60 461.36 162.00 453.00
C 160.69 474.37 182.89 474.36 199.00 476.00 C 215.11 477.64 240.01 477.14 256.00 476.00 C 271.99 474.86 294.35 475.70 292.00 455.00
C 278.19 461.95 262.74 464.00 247.00 464.00 Z"/>
</g>
<g fill="None" fill-opacity="0.0" stroke="#9F7F70" stroke-opacity="1.00" stroke-width="0.3"><path d="
M 243.00 455.00 
C 240.00 455.00 237.00 455.00 234.00 455.00
C 236.76 455.27 240.18 455.27 243.00 455.00 Z"/>
</g>
<g fill="None" fill-opacity="0.0" stroke="#A18171" stroke-opacity="1.00" stroke-width="0.3"><path d="
M 247.00 464.00 
C 241.67 464.00 236.33 464.00 231.00 464.00
C 235.97 464.48 241.97 464.49 247.00 464.00 Z"/>
</g>
<g fill="#000000" fill-opacity="0.00" stroke="None">
<path d="
M 0.00 512.00 
L 512.00 512.00
L 512.00 0.00
L 0.00 0.00
L 0.00 512.00
M 251.00 26.00 
C 258.05 29.44 247.91 39.87 245.23 45.23 C 242.55 50.59 242.59 63.12 246.31 69.69 C 250.02 76.26 250.55 88.25 248.02 96.02 C 245.49 103.80 240.78 106.75 237.23 115.23 C 233.68 123.71 238.71 129.49 242.25 137.75 C 245.80 146.00 231.26 144.05 229.70 135.30 C 228.13 126.56 225.14 118.06 228.93 109.93 C 232.71 101.79 236.45 98.22 239.32 90.32 C 242.19 82.43 237.52 73.12 234.68 66.32 C 231.83 59.53 232.87 46.62 236.31 41.31 C 239.74 35.99 243.21 22.20 251.00 26.00
M 212.00 35.00 
C 221.07 37.66 208.48 47.09 209.02 53.02 C 209.57 58.95 210.32 70.07 212.00 77.00 C 213.68 83.93 213.37 92.47 209.23 99.23 C 205.09 105.99 203.83 110.81 201.01 119.01 C 198.19 127.20 202.82 130.87 205.92 139.08 C 209.01 147.29 195.62 146.52 193.70 138.30 C 191.78 130.09 188.65 123.93 190.99 115.99 C 193.33 108.05 194.91 102.67 199.30 96.30 C 203.70 89.94 204.07 80.69 202.00 74.00 C 199.94 67.30 198.70 56.74 199.93 50.93 C 201.16 45.11 204.23 32.72 212.00 35.00
M 277.00 38.00 
C 285.71 40.46 273.46 52.02 274.01 58.01 C 274.56 64.00 276.45 75.59 278.99 82.01 C 281.53 88.43 279.83 101.00 276.68 106.68 C 273.53 112.36 268.91 124.55 272.93 130.07 C 276.94 135.59 279.96 149.67 271.00 147.00 C 262.04 144.33 264.00 133.72 262.00 127.00 C 260.00 120.27 263.25 108.87 266.77 102.77 C 270.29 96.67 270.83 85.57 267.68 79.32 C 264.53 73.07 263.23 60.01 264.00 54.00 C 264.77 47.99 270.54 36.18 277.00 38.00
M 359.00 266.00 
C 367.18 267.53 375.37 271.03 382.25 275.75 C 389.12 280.48 394.87 285.12 399.75 292.25 C 404.64 299.37 408.31 307.22 409.98 316.02 C 411.65 324.83 411.70 338.52 409.02 347.02 C 406.35 355.53 403.53 362.94 397.75 369.75 C 391.96 376.55 386.84 380.51 379.75 385.75 C 372.66 391.00 362.17 391.33 353.99 393.99 C 345.82 396.65 329.37 390.55 325.03 397.03 C 320.68 403.50 321.22 414.83 317.02 422.02 C 312.83 429.22 310.96 437.31 304.75 443.75 C 298.55 450.19 304.17 462.05 299.02 470.02 C 293.88 478.00 287.59 482.06 278.00 483.00 C 268.40 483.93 258.00 486.81 247.93 486.93 C 237.85 487.05 224.02 487.61 214.00 487.00 C 203.98 486.39 192.55 484.97 183.00 484.00 C 173.45 483.03 165.45 481.15 158.75 474.25 C 152.06 467.35 152.06 455.78 154.00 447.00
C 129.51 424.87 123.50 394.16 117.67 362.33 C 111.84 330.49 109.13 287.74 103.02 255.98 C 96.91 224.21 96.13 177.13 131.07 166.07 C 166.02 155.02 201.48 149.58 238.00 152.00 C 274.52 154.42 306.64 155.59 338.23 172.77 C 369.81 189.95 364.08 236.54 359.00 266.00 Z"/>
</g>
<g fill="#420849" fill-opacity="0.90" stroke="None">
<path d="
M 251.00 26.00 
C 243.21 22.20 239.74 35.99 236.31 41.31 C 232.87 46.62 231.83 59.53 234.68 66.32 C 237.52 73.12 242.19 82.43 239.32 90.32 C 236.45 98.22 232.71 101.79 228.93 109.93 C 225.14 118.06 228.13 126.56 229.70 135.30 C 231.26 144.05 245.80 146.00 242.25 137.75 C 238.71 129.49 233.68 123.71 237.23 115.23 C 240.78 106.75 245.49 103.80 248.02 96.02 C 250.55 88.25 250.02 76.26 246.31 69.69 C 242.59 63.12 242.55 50.59 245.23 45.23 C 247.91 39.87 258.05 29.44 251.00 26.00 Z"/>
</g>
<g fill="#420848" fill-opacity="0.91" stroke="None">
<path d="
M 212.00 35.00 
C 204.23 32.72 201.16 45.11 199.93 50.93 C 198.70 56.74 199.94 67.30 202.00 74.00 C 204.07 80.69 203.70 89.94 199.30 96.30 C 194.91 102.67 193.33 108.05 190.99 115.99 C 188.65 123.93 191.78 130.09 193.70 138.30 C 195.62 146.52 209.01 147.29 205.92 139.08 C 202.82 130.87 198.19 127.20 201.01 119.01 C 203.83 110.81 205.09 105.99 209.23 99.23 C 213.37 92.47 213.68 83.93 212.00 77.00 C 210.32 70.07 209.57 58.95 209.02 53.02 C 208.48 47.09 221.07 37.66 212.00 35.00 Z"/>
</g>
<g fill="#420848" fill-opacity="0.91" stroke="None">
<path d="
M 277.00 38.00 
C 270.54 36.18 264.77 47.99 264.00 54.00 C 263.23 60.01 264.53 73.07 267.68 79.32 C 270.83 85.57 270.29 96.67 266.77 102.77 C 263.25 108.87 260.00 120.27 262.00 127.00 C 264.00 133.72 262.04 144.33 271.00 147.00 C 279.96 149.67 276.94 135.59 272.93 130.07 C 268.91 124.55 273.53 112.36 276.68 106.68 C 279.83 101.00 281.53 88.43 278.99 82.01 C 276.45 75.59 274.56 64.00 274.01 58.01 C 273.46 52.02 285.71 40.46 277.00 38.00 Z"/>
</g>
<g fill="#440C4A" fill-opacity="0.96" stroke="None">
<path d="
M 359.00 266.00 
C 364.08 236.54 369.81 189.95 338.23 172.77 C 306.64 155.59 274.52 154.42 238.00 152.00 C 201.48 149.58 166.02 155.02 131.07 166.07 C 96.13 177.13 96.91 224.21 103.02 255.98 C 109.13 287.74 111.84 330.49 117.67 362.33 C 123.50 394.16 129.51 424.87 154.00 447.00
C 152.06 455.78 152.06 467.35 158.75 474.25 C 165.45 481.15 173.45 483.03 183.00 484.00 C 192.55 484.97 203.98 486.39 214.00 487.00 C 224.02 487.61 237.85 487.05 247.93 486.93 C 258.00 486.81 268.40 483.93 278.00 483.00 C 287.59 482.06 293.88 478.00 299.02 470.02 C 304.17 462.05 298.55 450.19 304.75 443.75 C 310.96 437.31 312.83 429.22 317.02 422.02 C 321.22 414.83 320.68 403.50 325.03 397.03 C 329.37 390.55 345.82 396.65 353.99 393.99 C 362.17 391.33 372.66 391.00 379.75 385.75 C 386.84 380.51 391.96 376.55 397.75 369.75 C 403.53 362.94 406.35 355.53 409.02 347.02 C 411.70 338.52 411.65 324.83 409.98 316.02 C 408.31 307.22 404.64 299.37 399.75 292.25 C 394.87 285.12 389.12 280.48 382.25 275.75 C 375.37 271.03 367.18 267.53 359.00 266.00
M 240.00 163.00 
C 270.66 163.00 299.89 166.26 328.03 177.98 C 356.16 189.69 356.68 225.80 352.01 253.01 C 347.34 280.22 339.79 309.36 332.22 337.22 C 324.66 365.09 317.18 387.45 309.02 417.02 C 300.87 446.60 271.72 455.00 243.00 455.00
C 240.18 455.27 236.76 455.27 234.00 455.00
C 210.59 455.00 181.02 455.02 161.77 441.23 C 142.52 427.44 139.21 406.69 132.22 384.78 C 125.24 362.87 124.81 332.89 121.00 309.00 C 117.19 285.11 113.67 257.54 111.00 233.00 C 108.33 208.46 111.64 180.75 138.07 174.07 C 164.51 167.40 186.24 163.00 214.00 163.00
C 222.18 162.21 231.89 162.22 240.00 163.00
M 328.00 385.00 
C 327.85 364.99 351.74 371.84 364.75 362.75 C 377.75 353.65 385.16 337.72 382.01 321.99 C 378.85 306.27 368.37 294.67 353.00 291.00
C 352.97 285.41 355.15 280.40 356.00 275.00
C 386.59 281.41 407.30 310.93 400.02 342.02 C 392.75 373.12 359.96 390.65 328.00 385.00
M 335.00 362.00 
C 339.81 341.21 346.24 320.85 351.00 300.00
C 366.25 304.65 376.46 322.11 371.67 337.67 C 366.88 353.24 350.40 361.44 335.00 362.00
M 231.00 464.00 
C 236.33 464.00 241.67 464.00 247.00 464.00
C 262.74 464.00 278.19 461.95 292.00 455.00
C 294.35 475.70 271.99 474.86 256.00 476.00 C 240.01 477.14 215.11 477.64 199.00 476.00 C 182.89 474.36 160.69 474.37 162.00 453.00
C 183.60 461.36 207.26 463.31 231.00 464.00 Z"/>
</g>
<g fill="#9F7E70" fill-opacity="1.00" stroke="None">
<path d="
M 214.00 163.00 
C 222.67 163.00 231.33 163.00 240.00 163.00
C 231.89 162.22 222.18 162.21 214.00 163.00 Z"/>
</g>
<g fill="#FEF898" fill-opacity="1.00" stroke="None">
<path d="
M 234.00 455.00 
C 237.00 455.00 240.00 455.00 243.00 455.00
C 271.72 455.00 300.87 446.60 309.02 417.02 C 317.18 387.45 324.66 365.09 332.22 337.22 C 339.79 309.36 347.34 280.22 352.01 253.01 C 356.68 225.80 356.16 189.69 328.03 177.98 C 299.89 166.26 270.66 163.00 240.00 163.00
C 231.33 163.00 222.67 163.00 214.00 163.00
C 186.24 163.00 164.51 167.40 138.07 174.07 C 111.64 180.75 108.33 208.46 111.00 233.00 C 113.67 257.54 117.19 285.11 121.00 309.00 C 124.81 332.89 125.24 362.87 132.22 384.78 C 139.21 406.69 142.52 427.44 161.77 441.23 C 181.02 455.02 210.59 455.00 234.00 455.00
M 248.00 187.00 
C 260.53 187.00 277.28 188.63 289.01 190.99 C 300.74 193.36 315.99 194.08 320.00 206.00
C 327.25 195.86 340.43 203.71 330.75 210.75 C 321.07 217.79 315.41 218.54 304.98 221.98 C 294.54 225.41 284.45 225.01 273.33 226.33 C 262.21 227.65 249.56 227.92 238.00 228.00
C 232.02 228.58 224.91 228.57 219.00 228.00
C 210.39 228.00 202.50 227.30 194.00 227.00
C 194.00 249.00 194.00 271.00 194.00 293.00
C 208.90 289.29 216.22 298.51 224.25 308.75 C 232.29 318.98 240.31 325.50 239.00 340.00 C 237.69 354.50 238.06 367.95 235.00 382.00 C 231.95 396.05 210.91 391.45 198.00 391.00 C 185.09 390.55 167.07 392.94 155.31 387.69 C 143.54 382.45 150.09 360.10 148.00 349.00 C 145.91 337.90 145.72 319.57 154.25 311.25 C 162.78 302.93 168.43 291.40 182.00 293.00
C 186.62 290.29 184.00 272.37 184.00 267.00
C 184.00 258.33 184.00 249.67 184.00 241.00
C 184.00 236.00 184.00 231.00 184.00 226.00
C 180.52 223.00 170.51 225.19 165.99 223.01 C 161.47 220.83 153.89 221.25 149.32 218.68 C 144.75 216.11 137.89 215.67 133.92 212.08 C 129.95 208.49 123.58 209.32 122.08 202.92 C 120.59 196.51 132.36 198.16 135.00 202.00
C 146.64 190.81 162.32 190.05 179.01 188.01 C 195.70 185.97 217.55 186.61 235.00 186.00
C 239.41 186.00 244.34 186.65 248.00 187.00 Z"/>
</g>
<g fill="#440A49" fill-opacity="1.00" stroke="None">
<path d="
M 184.00 226.00 
C 186.52 228.18 185.00 237.59 185.00 241.00
C 185.00 249.67 185.00 258.33 185.00 267.00
C 185.00 273.19 187.82 290.63 182.00 293.00
C 168.43 291.40 162.78 302.93 154.25 311.25 C 145.72 319.57 145.91 337.90 148.00 349.00 C 150.09 360.10 143.54 382.45 155.31 387.69 C 167.07 392.94 185.09 390.55 198.00 391.00 C 210.91 391.45 231.95 396.05 235.00 382.00 C 238.06 367.95 237.69 354.50 239.00 340.00 C 240.31 325.50 232.29 318.98 224.25 308.75 C 216.22 298.51 208.90 289.29 194.00 293.00
C 194.00 271.00 194.00 249.00 194.00 227.00
C 202.50 227.30 210.39 228.00 219.00 228.00
C 225.33 228.00 231.67 228.00 238.00 228.00
C 249.56 227.92 262.21 227.65 273.33 226.33 C 284.45 225.01 294.54 225.41 304.98 221.98 C 315.41 218.54 321.07 217.79 330.75 210.75 C 340.43 203.71 327.25 195.86 320.00 206.00
C 315.99 194.08 300.74 193.36 289.01 190.99 C 277.28 188.63 260.53 187.00 248.00 187.00
C 243.59 187.00 238.66 186.35 235.00 186.00
C 217.55 186.61 195.70 185.97 179.01 188.01 C 162.32 190.05 146.64 190.81 135.00 202.00
C 132.36 198.16 120.59 196.51 122.08 202.92 C 123.58 209.32 129.95 208.49 133.92 212.08 C 137.89 215.67 144.75 216.11 149.32 218.68 C 153.89 221.25 161.47 220.83 165.99 223.01 C 170.51 225.19 180.52 223.00 184.00 226.00
M 180.00 329.00 
C 185.24 328.69 191.79 328.50 197.00 329.00
C 201.45 329.00 209.55 329.10 207.67 322.33 C 205.79 315.56 198.86 319.83 194.00 319.00
C 194.00 313.33 194.00 307.67 194.00 302.00
C 202.09 300.73 209.43 301.70 213.75 308.25 C 218.08 314.80 220.38 317.39 225.75 323.25 C 231.13 329.10 231.36 335.58 231.00 344.00 C 230.64 352.42 228.22 359.31 228.07 368.07 C 227.93 376.84 226.20 383.90 216.00 382.00 C 205.80 380.10 198.54 383.23 189.00 382.00 C 179.46 380.77 173.68 381.44 164.00 381.00 C 154.32 380.56 159.07 366.64 158.00 360.00
C 157.64 356.27 157.00 351.41 157.00 347.00
C 157.00 327.30 160.20 303.90 184.00 301.00
C 184.00 307.33 184.00 313.67 184.00 320.00
C 172.43 314.56 165.44 330.87 180.00 329.00 Z"/>
</g>
<g fill="#B09477" fill-opacity="1.00" stroke="None">
<path d="
M 248.00 187.00 
C 244.34 186.65 239.41 186.00 235.00 186.00
C 238.66 186.35 243.59 187.00 248.00 187.00 Z"/>
</g>
<g fill="#CFBC84" fill-opacity="1.00" stroke="None">
<path d="
M 184.00 241.00 
C 184.00 240.96 185.00 241.00 185.00 241.00
C 185.00 237.59 186.52 228.18 184.00 226.00
C 184.00 231.00 184.00 236.00 184.00 241.00 Z"/>
</g>
<g fill="#A28271" fill-opacity="1.00" stroke="None">
<path d="
M 238.00 228.00 
C 231.67 228.00 225.33 228.00 219.00 228.00
C 224.91 228.57 232.02 228.58 238.00 228.00 Z"/>
</g>
<g fill="#A18171" fill-opacity="1.00" stroke="None">
<path d="
M 184.00 267.00 
C 184.00 266.96 185.00 267.00 185.00 267.00
C 185.00 258.33 185.00 249.67 185.00 241.00
C 185.00 241.00 184.00 240.96 184.00 241.00
C 184.00 249.67 184.00 258.33 184.00 267.00 Z"/>
</g>
<g fill="#75495E" fill-opacity="1.00" stroke="None">
<path d="
M 182.00 293.00 
C 187.82 290.63 185.00 273.19 185.00 267.00
C 185.00 267.00 184.00 266.96 184.00 267.00
C 184.00 272.37 186.62 290.29 182.00 293.00 Z"/>
</g>
<g fill="#FBF597" fill-opacity="1.00" stroke="None">
<path d="
M 328.00 385.00 
C 359.96 390.65 392.75 373.12 400.02 342.02 C 407.30 310.93 386.59 281.41 356.00 275.00
C 355.15 280.40 352.97 285.41 353.00 291.00
C 368.37 294.67 378.85 306.27 382.01 321.99 C 385.16 337.72 377.75 353.65 364.75 362.75 C 351.74 371.84 327.85 364.99 328.00 385.00 Z"/>
</g>
<g fill="#000000" fill-opacity="0.00" stroke="None">
<path d="
M 335.00 362.00 
C 350.40 361.44 366.88 353.24 371.67 337.67 C 376.46 322.11 366.25 304.65 351.00 300.00
C 346.24 320.85 339.81 341.21 335.00 362.00 Z"/>
</g>
<g fill="#EF5922" fill-opacity="1.00" stroke="None">
<path d="
M 157.00 347.00 
C 157.36 350.73 158.00 355.59 158.00 360.00
C 159.07 366.64 154.32 380.56 164.00 381.00 C 173.68 381.44 179.46 380.77 189.00 382.00 C 198.54 383.23 205.80 380.10 216.00 382.00 C 226.20 383.90 227.93 376.84 228.07 368.07 C 228.22 359.31 230.64 352.42 231.00 344.00 C 231.36 335.58 231.13 329.10 225.75 323.25 C 220.38 317.39 218.08 314.80 213.75 308.25 C 209.43 301.70 202.09 300.73 194.00 302.00
C 194.00 307.67 194.00 313.33 194.00 319.00
C 198.86 319.83 205.79 315.56 207.67 322.33 C 209.55 329.10 201.45 329.00 197.00 329.00
C 191.35 329.00 185.65 329.22 180.00 329.00
C 165.44 330.87 172.43 314.56 184.00 320.00
C 184.00 313.67 184.00 307.33 184.00 301.00
C 160.20 303.90 157.00 327.30 157.00 347.00 Z"/>
</g>
<g fill="#993136" fill-opacity="1.00" stroke="None">
<path d="
M 180.00 329.00 
C 185.65 329.22 191.35 329.00 197.00 329.00
C 191.79 328.50 185.24 328.69 180.00 329.00 Z"/>
</g>
<g fill="#89293A" fill-opacity="1.00" stroke="None">
<path d="
M 158.00 360.00 
C 158.00 355.59 157.36 350.73 157.00 347.00
C 157.00 351.41 157.64 356.27 158.00 360.00 Z"/>
</g>
<g fill="#FAF497" fill-opacity="1.00" stroke="None">
<path d="
M 247.00 464.00 
C 241.97 464.49 235.97 464.48 231.00 464.00
C 207.26 463.31 183.60 461.36 162.00 453.00
C 160.69 474.37 182.89 474.36 199.00 476.00 C 215.11 477.64 240.01 477.14 256.00 476.00 C 271.99 474.86 294.35 475.70 292.00 455.00
C 278.19 461.95 262.74 464.00 247.00 464.00 Z"/>
</g>
<g fill="#9F7F70" fill-opacity="1.00" stroke="None">
<path d="
M 243.00 455.00 
C 240.00 455.00 237.00 455.00 234.00 455.00
C 236.76 455.27 240.18 455.27 243.00 455.00 Z"/>
</g>
<g fill="#A18171" fill-opacity="1.00" stroke="None">
<path d="
M 247.00 464.00 
C 241.67 464.00 236.33 464.00 231.00 464.00
C 235.97 464.48 241.97 464.49 247.00 464.00 Z"/>
</g>
</svg>